<?xml version="1.0" encoding="utf-8"?>
<!-- Generator: Adobe Illustrator 16.0.0, SVG Export Plug-In . SVG Version: 6.00 Build 0)  -->
<!DOCTYPE svg PUBLIC "-//W3C//DTD SVG 1.1//EN" "http://www.w3.org/Graphics/SVG/1.1/DTD/svg11.dtd">
<svg version="1.1" xmlns="http://www.w3.org/2000/svg" xmlns:xlink="http://www.w3.org/1999/xlink" x="0px" y="0px"
	 width="1156.38px" height="260.55px" viewBox="0 0 1156.38 260.55" enable-background="new 0 0 1156.38 260.55"
	 xml:space="preserve">
<g id="Layer_2">
	<g id="XMLID_2_">
		<g>
			<rect x="0" y="0.004" fill="#675E5C" width="1156.38" height="260.55"/>
		</g>
		<g>
		</g>
	</g>
</g>
<g id="Layer_1">
	<g>
		<g id="XMLID_1_">
			<g>
				<path fill="#EBE6E5" d="M1156.38,252.13v6.63h-9.141c-11.949,0-21.84-3.64-29.659-10.93c-7.83-7.28-11.74-16.13-11.74-26.521
					V74.55h-9.311v-6.63h9.311V14.69l28.5-12.9v66.13h20.6v6.63h-20.6v162.89c0,9.801,4.3,14.69,12.899,14.69H1156.38z
					 M1124.84,246.58c-3.23-4.54-4.84-10.63-4.84-18.28V15.77l-7.351,3.4v204.649C1112.65,233.5,1116.71,241.08,1124.84,246.58z"/>
				<path fill="#EBE6E5" d="M1091.69,252.13v6.63h-37.63V87.45c0-9.32-3.59-13.98-10.76-13.98c-4.66,0-9.08,2.09-13.26,6.27v172.39
					h9.319v6.63h-47.13v-6.63h9.32V74.55h-9.32v-6.63h37.811v5.19c5.38-4.66,12.479-6.99,21.33-6.99
					c20.779,0,31.18,11.23,31.18,33.69v152.32H1091.69z M1068.21,252.13V93.54c0-10.27-4.12-17.08-12.36-20.43
					c3.34,3.35,5.01,9.08,5.01,17.21v161.81H1068.21z M1015.89,252.13V74.55h-7.35v177.58H1015.89z"/>
				<path fill="#EBE6E5" d="M979.51,200.34v22.76c0,10.521-3.92,19.391-11.74,26.61c-7.83,7.229-17.71,10.84-29.66,10.84
					s-21.859-3.61-29.739-10.84c-7.891-7.22-11.83-16.09-11.83-26.61V103.58c0-10.51,3.939-19.38,11.83-26.61
					c7.88-7.23,17.789-10.85,29.739-10.85s21.83,3.62,29.66,10.85c7.82,7.23,11.74,16.1,11.74,26.61v62.72h-54.3v72.93
					c0,9.8,4.3,14.7,12.899,14.7c8.48,0,12.73-4.9,12.73-14.7v-38.89H979.51z M965.17,229.02v-22.05h-7.34v27.24
					c0,8.01-1.98,14.1-5.921,18.28C960.75,246.88,965.17,239.05,965.17,229.02z M965.17,159.67V97.66
					c0-10.03-4.42-17.86-13.261-23.47c3.94,4.18,5.921,10.27,5.921,18.28v67.2H965.17z M950.84,159.67V87.45
					c0-9.8-4.25-14.7-12.73-14.7c-8.6,0-12.899,4.9-12.899,14.7v72.22H950.84z M910.871,96.59c0-7.65,1.619-13.8,4.84-18.46
					c-8.12,5.62-12.181,13.2-12.181,22.76v124.9c0,9.56,4.061,17.14,12.181,22.76c-3.221-4.66-4.84-10.81-4.84-18.46V96.59z"/>
				<path fill="#EBE6E5" d="M883.64,252.13v6.63h-9.14c-11.95,0-21.841-3.64-29.66-10.93c-7.83-7.28-11.74-16.13-11.74-26.521V74.55
					h-9.32v-6.63h9.32V14.69l28.49-12.9v66.13H882.2v6.63H861.59v162.89c0,9.801,4.3,14.69,12.91,14.69H883.64z M852.1,246.58
					c-3.229-4.54-4.84-10.63-4.84-18.28V15.77l-7.351,3.4v204.649C839.91,233.5,843.97,241.08,852.1,246.58z"/>
				<path fill="#EBE6E5" d="M818.94,252.13v6.63h-37.63V87.45c0-9.32-3.58-13.98-10.75-13.98c-4.66,0-9.08,2.09-13.26,6.27v172.39
					h9.32v6.63H719.49v-6.63h9.32V74.55h-9.32v-6.63H757.3v5.19c5.38-4.66,12.479-6.99,21.32-6.99
					c20.789,0,31.189,11.23,31.189,33.69v152.32H818.94z M795.47,252.13V93.54c0-10.27-4.12-17.08-12.37-20.43
					c3.35,3.35,5.021,9.08,5.021,17.21v161.81H795.47z M743.14,252.13V74.55h-7.34v177.58H743.14z"/>
				<path fill="#EBE6E5" d="M706.77,103.58V223.1c0,10.521-3.92,19.391-11.74,26.61c-7.83,7.229-17.71,10.84-29.659,10.84
					c-11.95,0-21.86-3.61-29.75-10.84c-7.881-7.22-11.82-16.09-11.82-26.61V103.58c0-10.51,3.939-19.38,11.82-26.61
					c7.89-7.23,17.8-10.85,29.75-10.85c11.949,0,21.829,3.62,29.659,10.85C702.85,84.2,706.77,93.07,706.77,103.58z M692.43,229.02
					V97.66c0-10.03-4.42-17.86-13.26-23.47c3.939,4.18,5.91,10.27,5.91,18.28v141.74c0,8.01-1.971,14.1-5.91,18.28
					C688.01,246.88,692.43,239.05,692.43,229.02z M678.09,239.229V87.45c0-9.8-4.24-14.7-12.72-14.7c-8.601,0-12.9,4.9-12.9,14.7
					v151.78c0,9.8,4.3,14.7,12.9,14.7C673.85,253.93,678.09,249.029,678.09,239.229z M638.13,96.59c0-7.65,1.62-13.8,4.84-18.46
					c-8.13,5.62-12.18,13.2-12.18,22.76v124.9c0,9.56,4.05,17.14,12.18,22.76c-3.22-4.66-4.84-10.81-4.84-18.46V96.59z"/>
				<path fill="#EBE6E5" d="M603.73,181.71v41.39c0,10.28-4.31,19.09-12.91,26.43c-8.6,7.351-18.989,11.021-31.18,11.021
					c-12.07,0-22.43-3.67-31.09-11.021c-8.66-7.34-12.99-16.149-12.99-26.43V37.45c0-10.27,4.33-19.08,12.99-26.43
					C537.21,3.67,547.57,0,559.64,0c12.19,0,22.58,3.67,31.18,11.02c8.601,7.35,12.91,16.16,12.91,26.43v41.4h-29.39V21.32
					c0-4.06-1.44-7.52-4.3-10.39c-2.87-2.87-6.34-4.3-10.4-4.3s-7.52,1.43-10.39,4.3s-4.3,6.33-4.3,10.39v217.91
					c0,4.061,1.43,7.53,4.3,10.391c2.87,2.87,6.33,4.31,10.39,4.31s7.53-1.439,10.4-4.31c2.86-2.86,4.3-6.33,4.3-10.391v-57.52
					H603.73z M589.03,229.02v-40.68h-7.35v45.87c0,7.41-1.97,13.38-5.91,17.92C584.61,246.52,589.03,238.81,589.03,229.02z
					 M589.03,72.4V31.54c0-9.8-4.42-17.5-13.26-23.12c3.94,4.54,5.91,10.57,5.91,18.1V72.4H589.03z M530.25,30.46
					c0-7.04,1.62-12.9,4.84-17.56c-8.12,5.5-12.18,12.85-12.18,22.04v190.85c0,9.08,4.06,16.43,12.18,22.04
					c-3.22-4.66-4.84-10.57-4.84-17.74V30.46z"/>
				<path fill="#EBE6E5" d="M447.82,1.79v6.63h-9.32l-17.2,250.34h-29.39l-13.8-211.81l-13.26,211.81h-29.39L316.29,8.42h-9.14V1.79
					h47.67v6.63h-9.14l13.62,208.95L373.28,1.79h29.38L417,217.37L429.36,8.42h-9.13V1.79H447.82z M406.61,252.13L389.4,8.42h-7.34
					l17.2,243.71H406.61z M350.16,252.13L330.98,8.42h-7.34l19.17,243.71H350.16z"/>
				<path fill="#EBE6E5" d="M299.8,1.79v77.06h-29.21V8.42h-22.04V119.7h32.98v6.63h-32.98v125.8h9.14v6.63h-47.67v-6.63h9.14V8.42
					h-9.14V1.79H299.8z M285.29,72.4V8.42h-7.35V72.4H285.29z M233.86,252.13V8.42h-7.35v243.71H233.86z"/>
				<path fill="#EBE6E5" d="M194.79,186.55v36.55c0,10.4-4.03,19.24-12.09,26.521c-8.07,7.29-18.07,10.93-30.02,10.93
					c-12.07,0-22.13-3.64-30.19-10.93c-8.07-7.28-12.1-16.12-12.1-26.521v-41.39h29.39v57.52c0,9.8,4.3,14.7,12.9,14.7
					c8.48,0,12.72-4.9,12.72-14.7v-44.62c0-12.189-2.92-22.88-8.78-32.08l-36.73-57.16c-6.34-9.92-9.5-20.91-9.5-32.97V37.45
					c0-10.39,4.03-19.23,12.1-26.52C130.55,3.64,140.61,0,152.68,0c11.95,0,21.95,3.64,30.02,10.93
					c8.06,7.29,12.09,16.13,12.09,26.52v41.4H165.4V21.32c0-9.79-4.24-14.69-12.72-14.69c-8.6,0-12.9,4.9-12.9,14.69v43.01
					c0,12.07,2.92,22.7,8.78,31.9l36.74,57.16C191.63,163.31,194.79,174.359,194.79,186.55z M180.1,229.02V190.49
					c0-12.311-3.05-23.181-9.14-32.62l-36.74-56.98c-6.09-9.44-9.14-20.31-9.14-32.62V30.46c0-7.04,1.62-12.9,4.84-17.56
					c-8.12,5.5-12.18,12.85-12.18,22.04v35.13c0,12.3,3.04,23.23,9.14,32.79l36.73,56.81c6.09,9.43,9.14,20.31,9.14,32.609v41.931
					c0,7.41-1.91,13.38-5.73,17.92C175.74,246.52,180.1,238.81,180.1,229.02z M180.1,72.4V31.54c0-9.8-4.36-17.5-13.08-23.12
					c3.82,4.54,5.73,10.57,5.73,18.1V72.4H180.1z M129.92,247.83c-3.22-4.66-4.84-10.57-4.84-17.74v-41.75h-7.34v37.45
					C117.74,234.87,121.8,242.22,129.92,247.83z"/>
				<path fill="#EBE6E5" d="M95.34,1.79v6.63H86.2v250.34H62.72L18.28,58.78v193.35h9.14v6.63H0v-6.63h9.14V8.42H0V1.79h37.1
					l39.96,178.48V8.42h-9.14V1.79H95.34z M78.49,252.13L24.55,8.42h-8.06l53.94,243.71H78.49z"/>
			</g>
			<g>
			</g>
		</g>
	</g>
</g>
</svg>
